<?xml version="1.0" encoding="UTF-8" standalone="no"?>
<!-- Created with Inkscape (http://www.inkscape.org/) -->
<svg
   xmlns:dc="http://purl.org/dc/elements/1.1/"
   xmlns:cc="http://creativecommons.org/ns#"
   xmlns:rdf="http://www.w3.org/1999/02/22-rdf-syntax-ns#"
   xmlns:svg="http://www.w3.org/2000/svg"
   xmlns="http://www.w3.org/2000/svg"
   xmlns:xlink="http://www.w3.org/1999/xlink"
   xmlns:sodipodi="http://sodipodi.sourceforge.net/DTD/sodipodi-0.dtd"
   xmlns:inkscape="http://www.inkscape.org/namespaces/inkscape"
   width="50pt"
   height="50pt"
   id="svg1944"
   sodipodi:version="0.32"
   inkscape:version="0.46"
   sodipodi:docbase="/export/home/pedro/workspace/piratadmin/artwork"
   sodipodi:docname="twitter_pirata.svg"
   version="1.0"
   inkscape:output_extension="org.inkscape.output.svg.inkscape">
  <defs
     id="defs1946">
    <inkscape:perspective
       sodipodi:type="inkscape:persp3d"
       inkscape:vp_x="0 : 31.25 : 1"
       inkscape:vp_y="0 : 1000 : 0"
       inkscape:vp_z="62.5 : 31.25 : 1"
       inkscape:persp3d-origin="31.25 : 20.833333 : 1"
       id="perspective2574" />
    <linearGradient
       y2="31.452499"
       x2="11.413211"
       y1="34.807064"
       x1="18.711395"
       gradientTransform="matrix(2.151235,0,0,1.154539,-0.778091,-3.220331)"
       gradientUnits="userSpaceOnUse"
       id="linearGradient121"
       xlink:href="#linearGradient6621"
       inkscape:collect="always" />
    <linearGradient
       id="linearGradient6621">
      <stop
         id="stop6622"
         offset="0.0000000"
         style="stop-color:#f5a108;stop-opacity:0.0000000;" />
      <stop
         id="stop6623"
         offset="1.0000000"
         style="stop-color:#fefdc3;stop-opacity:0.74251497;" />
    </linearGradient>
    <linearGradient
       gradientUnits="userSpaceOnUse"
       gradientTransform="scale(1.365022,0.732589)"
       y2="8.8090458"
       x2="7.5337296"
       y1="21.47023"
       x1="13.567193"
       id="linearGradient117"
       xlink:href="#linearGradient6621"
       inkscape:collect="always" />
    <linearGradient
       id="linearGradient118">
      <stop
         id="stop119"
         offset="0.0000000"
         style="stop-color:#f5a108;stop-opacity:0.0000000;" />
      <stop
         id="stop120"
         offset="1.0000000"
         style="stop-color:#fefdc3;stop-opacity:0.74251497;" />
    </linearGradient>
    <linearGradient
       id="linearGradient3111"
       inkscape:collect="always">
      <stop
         id="stop3113"
         offset="0"
         style="stop-color:#ffffff;stop-opacity:1;" />
      <stop
         id="stop3115"
         offset="1"
         style="stop-color:#ffffff;stop-opacity:0;" />
    </linearGradient>
    <linearGradient
       inkscape:collect="always"
       xlink:href="#linearGradient3111"
       id="linearGradient3293"
       gradientUnits="userSpaceOnUse"
       gradientTransform="matrix(0.903401,0,0,0.903401,300.136,72.8381)"
       x1="34.797703"
       y1="29.173397"
       x2="17.444614"
       y2="-6.8890476" />
    <linearGradient
       inkscape:collect="always"
       xlink:href="#linearGradient6621"
       id="linearGradient3296"
       gradientUnits="userSpaceOnUse"
       gradientTransform="matrix(2.012297,0,0,1.079974,298.6357,69.3197)"
       x1="11.355036"
       y1="32.756931"
       x2="6.3578372"
       y2="6.1003184" />
    <linearGradient
       inkscape:collect="always"
       xlink:href="#linearGradient6621"
       id="linearGradient3300"
       gradientUnits="userSpaceOnUse"
       gradientTransform="matrix(0.946979,0,0,0.487322,301.5356,74.71007)"
       x1="22.819513"
       y1="28.829224"
       x2="12.849945"
       y2="12.239423" />
    <linearGradient
       inkscape:collect="always"
       xlink:href="#linearGradient6621"
       id="linearGradient4225"
       gradientUnits="userSpaceOnUse"
       gradientTransform="matrix(0.946979,0,0,0.487322,301.5356,74.71007)"
       x1="22.819513"
       y1="28.829224"
       x2="12.849945"
       y2="12.239423" />
    <linearGradient
       inkscape:collect="always"
       xlink:href="#linearGradient6621"
       id="linearGradient4227"
       gradientUnits="userSpaceOnUse"
       gradientTransform="matrix(2.012297,0,0,1.079974,298.6357,69.3197)"
       x1="11.355036"
       y1="32.756931"
       x2="6.3578372"
       y2="6.1003184" />
    <linearGradient
       inkscape:collect="always"
       xlink:href="#linearGradient3111"
       id="linearGradient4229"
       gradientUnits="userSpaceOnUse"
       gradientTransform="matrix(0.903401,0,0,0.903401,300.136,72.8381)"
       x1="34.797703"
       y1="29.173397"
       x2="17.444614"
       y2="-6.8890476" />
    <linearGradient
       inkscape:collect="always"
       xlink:href="#linearGradient6621"
       id="linearGradient5138"
       gradientUnits="userSpaceOnUse"
       gradientTransform="matrix(0.946979,0,0,0.487322,301.5356,74.71007)"
       x1="22.819513"
       y1="28.829224"
       x2="12.849945"
       y2="12.239423" />
    <linearGradient
       inkscape:collect="always"
       xlink:href="#linearGradient6621"
       id="linearGradient5140"
       gradientUnits="userSpaceOnUse"
       gradientTransform="matrix(2.012297,0,0,1.079974,298.6357,69.3197)"
       x1="11.355036"
       y1="32.756931"
       x2="6.3578372"
       y2="6.1003184" />
    <linearGradient
       inkscape:collect="always"
       xlink:href="#linearGradient3111"
       id="linearGradient5142"
       gradientUnits="userSpaceOnUse"
       gradientTransform="matrix(0.903401,0,0,0.903401,300.136,72.8381)"
       x1="34.797703"
       y1="29.173397"
       x2="17.444614"
       y2="-6.8890476" />
    <linearGradient
       inkscape:collect="always"
       xlink:href="#linearGradient6621"
       id="linearGradient5158"
       gradientUnits="userSpaceOnUse"
       gradientTransform="matrix(0.946979,0,0,0.487322,301.5356,74.71007)"
       x1="22.819513"
       y1="28.829224"
       x2="12.849945"
       y2="12.239423" />
    <linearGradient
       inkscape:collect="always"
       xlink:href="#linearGradient6621"
       id="linearGradient5160"
       gradientUnits="userSpaceOnUse"
       gradientTransform="matrix(2.012297,0,0,1.079974,298.6357,69.3197)"
       x1="11.355036"
       y1="32.756931"
       x2="6.3578372"
       y2="6.1003184" />
    <linearGradient
       inkscape:collect="always"
       xlink:href="#linearGradient3111"
       id="linearGradient5162"
       gradientUnits="userSpaceOnUse"
       gradientTransform="matrix(0.903401,0,0,0.903401,300.136,72.8381)"
       x1="34.797703"
       y1="29.173397"
       x2="17.444614"
       y2="-6.8890476" />
    <linearGradient
       inkscape:collect="always"
       xlink:href="#linearGradient6621"
       id="linearGradient5180"
       gradientUnits="userSpaceOnUse"
       gradientTransform="matrix(0.946979,0,0,0.487322,301.5356,74.71007)"
       x1="22.819513"
       y1="28.829224"
       x2="12.849945"
       y2="12.239423" />
    <linearGradient
       inkscape:collect="always"
       xlink:href="#linearGradient6621"
       id="linearGradient5182"
       gradientUnits="userSpaceOnUse"
       gradientTransform="matrix(2.012297,0,0,1.079974,298.6357,69.3197)"
       x1="11.355036"
       y1="32.756931"
       x2="6.3578372"
       y2="6.1003184" />
    <linearGradient
       inkscape:collect="always"
       xlink:href="#linearGradient3111"
       id="linearGradient5184"
       gradientUnits="userSpaceOnUse"
       gradientTransform="matrix(0.903401,0,0,0.903401,300.136,72.8381)"
       x1="34.797703"
       y1="29.173397"
       x2="17.444614"
       y2="-6.8890476" />
    <linearGradient
       inkscape:collect="always"
       xlink:href="#linearGradient6621"
       id="linearGradient5206"
       gradientUnits="userSpaceOnUse"
       gradientTransform="matrix(0.946979,0,0,0.487322,301.5356,74.71007)"
       x1="22.819513"
       y1="28.829224"
       x2="12.849945"
       y2="12.239423" />
    <linearGradient
       inkscape:collect="always"
       xlink:href="#linearGradient6621"
       id="linearGradient5208"
       gradientUnits="userSpaceOnUse"
       gradientTransform="matrix(2.012297,0,0,1.079974,298.6357,69.3197)"
       x1="11.355036"
       y1="32.756931"
       x2="6.3578372"
       y2="6.1003184" />
    <linearGradient
       inkscape:collect="always"
       xlink:href="#linearGradient3111"
       id="linearGradient5210"
       gradientUnits="userSpaceOnUse"
       gradientTransform="matrix(0.903401,0,0,0.903401,300.136,72.8381)"
       x1="34.797703"
       y1="29.173397"
       x2="17.444614"
       y2="-6.8890476" />
    <inkscape:perspective
       id="perspective2640"
       inkscape:persp3d-origin="372.04724 : 350.78739 : 1"
       inkscape:vp_z="744.09448 : 526.18109 : 1"
       inkscape:vp_y="0 : 1000 : 0"
       inkscape:vp_x="0 : 526.18109 : 1"
       sodipodi:type="inkscape:persp3d" />
    <inkscape:perspective
       id="perspective2690"
       inkscape:persp3d-origin="372.04724 : 350.78739 : 1"
       inkscape:vp_z="744.09448 : 526.18109 : 1"
       inkscape:vp_y="0 : 1000 : 0"
       inkscape:vp_x="0 : 526.18109 : 1"
       sodipodi:type="inkscape:persp3d" />
    <filter
       inkscape:collect="always"
       id="filter3651"
       x="-0.31205607"
       width="1.6241121"
       y="-0.3114321"
       height="1.6228642">
      <feGaussianBlur
         inkscape:collect="always"
         stdDeviation="11.953009"
         id="feGaussianBlur3653" />
    </filter>
    <inkscape:perspective
       id="perspective3719"
       inkscape:persp3d-origin="372.04724 : 350.78739 : 1"
       inkscape:vp_z="744.09448 : 526.18109 : 1"
       inkscape:vp_y="0 : 1000 : 0"
       inkscape:vp_x="0 : 526.18109 : 1"
       sodipodi:type="inkscape:persp3d" />
  </defs>
  <sodipodi:namedview
     id="base"
     pagecolor="#ffffff"
     bordercolor="#666666"
     borderopacity="1.0"
     gridtolerance="10000"
     guidetolerance="10"
     objecttolerance="10"
     inkscape:pageopacity="0.0"
     inkscape:pageshadow="2"
     inkscape:zoom="1.9296875"
     inkscape:cx="31.25"
     inkscape:cy="29.6925"
     inkscape:document-units="px"
     inkscape:current-layer="layer1"
     inkscape:window-width="1024"
     inkscape:window-height="727"
     inkscape:window-x="50"
     inkscape:window-y="27"
     showguides="true"
     inkscape:guide-bbox="true"
     showgrid="false" />
  <metadata
     id="metadata1949">
    <rdf:RDF>
      <cc:Work
         rdf:about="">
        <dc:format>image/svg+xml</dc:format>
        <dc:type
           rdf:resource="http://purl.org/dc/dcmitype/StillImage" />
      </cc:Work>
    </rdf:RDF>
  </metadata>
  <g
     inkscape:label="Layer 1"
     inkscape:groupmode="layer"
     id="layer1">
    <image
       y="1.7143856"
       x="1.7115384"
       id="image3721"
       height="59.076923"
       width="59.076923"
       sodipodi:absref="/home/pedro/svn/pirata/piratadmin/trunk/artwork/twitter.png"
       xlink:href="twitter.png" />
    <g
       style="fill:#ffffff;fill-opacity:1"
       id="g2696"
       transform="matrix(0.1519082,0,0,0.1519082,50.695073,-15.921421)">
      <path
         style="fill:#ffffff;fill-opacity:1;fill-rule:evenodd;stroke:none;stroke-opacity:1"
         id="path2698"
         d="M -142.01194,387.96328 L -146.03384,387.96328 L -146.03384,338.00448 L -142.01194,338.00448 L -142.01194,387.96328 z"
         class="fil0" />
      <path
         style="fill:#ffffff;fill-opacity:1;fill-rule:evenodd;stroke:none;stroke-opacity:1"
         id="path2700"
         d="M -150.1042,347.72006 C -145.25853,346.31483 -124.85828,349.07684 -129.02556,368.82294 C -130.55194,375.99454 -138.88649,379.50757 -142.90838,382.51194 C -152.45435,389.65932 -144.24095,406.64332 -144.24095,406.64332 C -144.24095,406.64332 -148.67473,393.43894 -138.76534,387.18803 C -129.65549,381.44588 -98.23135,384.13521 -98.35249,366.4001 C -98.54631,332.43201 -151.50944,344.69147 -150.1042,347.72006 z"
         class="fil0" />
      <path
         id="path2702"
         d="M -84.35074,374.13756 C -85.60955,374.13756 -86.63119,373.11593 -86.63119,371.85712 C -86.63119,370.59832 -85.60955,369.57668 -84.35074,369.57668 C -83.09194,369.57668 -82.0703,370.59832 -82.0703,371.85712 C -82.0703,373.11593 -83.09194,374.13756 -84.35074,374.13756 z"
         style="fill:#ffffff;fill-opacity:1;fill-rule:nonzero;stroke:none;stroke-width:115;stroke-linecap:butt;stroke-linejoin:miter;marker:none;marker-start:none;marker-mid:none;marker-end:none;stroke-miterlimit:4;stroke-dashoffset:0;stroke-opacity:1;visibility:visible;display:inline;overflow:visible" />
      <g
         id="g2704"
         style="fill:#ffffff;fill-opacity:1">
        <path
           id="path2706"
           d="M -137.26377,328.91985 C -136.93796,330.13576 -137.66036,331.38701 -138.87628,331.71281 C -140.09219,332.03861 -141.34344,331.31621 -141.66924,330.10029 C -141.99504,328.88438 -141.27263,327.63313 -140.05673,327.30733 C -138.84081,326.98153 -137.58957,327.70394 -137.26377,328.91985 z"
           style="fill:#ffffff;fill-opacity:1;fill-rule:nonzero;stroke:none;stroke-width:115;stroke-linecap:butt;stroke-linejoin:miter;marker:none;marker-start:none;marker-mid:none;marker-end:none;stroke-miterlimit:4;stroke-dashoffset:0;stroke-opacity:1;visibility:visible;display:inline;overflow:visible" />
        <path
           id="path2708"
           d="M -114.58972,413.54057 C -114.26392,414.75648 -114.98632,416.00773 -116.20223,416.33353 C -117.41814,416.65933 -118.66939,415.93693 -118.99519,414.72101 C -119.321,413.5051 -118.59859,412.25385 -117.38268,411.92805 C -116.16676,411.60225 -114.91552,412.32466 -114.58972,413.54057 z"
           style="fill:#ffffff;fill-opacity:1;fill-rule:nonzero;stroke:none;stroke-width:115;stroke-linecap:butt;stroke-linejoin:miter;marker:none;marker-start:none;marker-mid:none;marker-end:none;stroke-miterlimit:4;stroke-dashoffset:0;stroke-opacity:1;visibility:visible;display:inline;overflow:visible" />
        <path
           d="M -86.71875,375.46875 C -86.758481,375.92253 -86.820446,376.36169 -86.875,376.8125 C -86.896068,376.98933 -86.914218,377.16761 -86.9375,377.34375 C -86.959979,377.51106 -87.006746,377.6769 -87.03125,377.84375 C -87.151107,378.65987 -87.301115,379.47731 -87.46875,380.28125 C -87.518252,380.52082 -87.54014,380.76196 -87.59375,381 C -87.865086,382.19469 -88.188474,383.37044 -88.5625,384.53125 C -88.565574,384.54084 -88.559419,384.55291 -88.5625,384.5625 C -88.894146,385.5949 -89.278992,386.59835 -89.6875,387.59375 C -89.729668,387.69638 -89.769522,387.80397 -89.8125,387.90625 C -89.883215,388.07465 -89.958387,388.23899 -90.03125,388.40625 C -90.19641,388.78522 -90.355001,389.15755 -90.53125,389.53125 C -90.545276,389.56099 -90.548406,389.5953 -90.5625,389.625 C -91.257636,391.08969 -92.050764,392.5107 -92.90625,393.875 C -92.978636,393.99064 -93.051479,394.10382 -93.125,394.21875 C -93.152757,394.26207 -93.190837,394.30054 -93.21875,394.34375 C -93.51389,394.8014 -93.812022,395.27275 -94.125,395.71875 C -94.154749,395.76105 -94.188847,395.80156 -94.21875,395.84375 C -94.533118,396.28818 -94.855697,396.72409 -95.1875,397.15625 C -95.219317,397.1976 -95.249281,397.24003 -95.28125,397.28125 C -95.614943,397.71254 -95.961715,398.14414 -96.3125,398.5625 C -96.341006,398.59639 -96.377638,398.62245 -96.40625,398.65625 C -96.763386,399.07945 -97.125663,399.497 -97.5,399.90625 C -97.529729,399.93867 -97.563919,399.96768 -97.59375,400 C -97.969338,400.40799 -98.3576,400.79411 -98.75,401.1875 C -98.781198,401.21873 -98.812453,401.25012 -98.84375,401.28125 C -99.237479,401.67345 -99.621089,402.06056 -100.03125,402.4375 C -100.06376,402.46737 -100.09239,402.50148 -100.125,402.53125 C -100.53733,402.9078 -100.9778,403.29568 -101.40625,403.65625 C -101.42371,403.67091 -101.45127,403.67286 -101.46875,403.6875 C -101.91362,404.06062 -102.35071,404.426 -102.8125,404.78125 C -103.11995,405.01782 -103.43582,405.24067 -103.75,405.46875 C -103.9263,405.59661 -104.10267,405.7185 -104.28125,405.84375 C -104.29321,405.85215 -104.30053,405.86661 -104.3125,405.875 C -104.4667,405.98291 -104.62537,406.08156 -104.78125,406.1875 C -105.36466,406.58473 -105.9583,406.97594 -106.5625,407.34375 C -106.82815,407.50496 -107.10501,407.65689 -107.375,407.8125 C -107.88661,408.10829 -108.38113,408.41317 -108.90625,408.6875 C -109.39974,408.9447 -109.89968,409.16776 -110.40625,409.40625 C -110.44853,409.42621 -110.48889,409.44892 -110.53125,409.46875 C -110.57395,409.48867 -110.61346,409.51146 -110.65625,409.53125 C -111.16173,409.76578 -111.67124,410.00416 -112.1875,410.21875 C -112.51626,410.35499 -112.85379,410.46539 -113.1875,410.59375 C -113.42506,410.68545 -113.6666,410.78756 -113.90625,410.875 C -113.98137,410.9023 -114.04964,410.94185 -114.125,410.96875 C -113.00463,412.05153 -112.41258,413.70955 -112.65625,415.21875 C -112.10014,415.02066 -111.54417,414.81134 -111,414.59375 C -110.89587,414.55191 -110.79125,414.51132 -110.6875,414.46875 C -110.61388,414.43869 -110.54214,414.40541 -110.46875,414.375 C -109.89968,414.13802 -109.33847,413.8839 -108.78125,413.625 C -108.73067,413.60163 -108.67546,413.58605 -108.625,413.5625 C -108.05171,413.29358 -107.46631,413.01033 -106.90625,412.71875 C -106.87252,412.70127 -106.84618,412.6738 -106.8125,412.65625 C -106.33731,412.4074 -105.87147,412.17104 -105.40625,411.90625 C -105.29179,411.84135 -105.17627,411.78457 -105.0625,411.71875 C -104.95718,411.65761 -104.85478,411.5932 -104.75,411.53125 C -103.7078,410.91505 -102.70599,410.25643 -101.71875,409.5625 C -101.15695,409.16761 -100.60544,408.76274 -100.0625,408.34375 C -99.547874,407.94731 -99.058105,407.54152 -98.5625,407.125 C -98.54529,407.11054 -98.517188,407.10823 -98.5,407.09375 C -98.015671,406.68546 -97.528179,406.23926 -97.0625,405.8125 C -97.035266,405.78755 -96.995924,405.77502 -96.96875,405.75 C -96.504633,405.32262 -96.070065,404.88256 -95.625,404.4375 C -94.687854,403.50185 -93.791595,402.54444 -92.9375,401.53125 C -92.909377,401.49789 -92.871779,401.47094 -92.84375,401.4375 C -92.445889,400.96161 -92.065429,400.4597 -91.6875,399.96875 C -91.660751,399.9341 -91.620402,399.90973 -91.59375,399.875 C -91.286639,399.4737 -91.012338,399.06711 -90.71875,398.65625 C -90.627461,398.52894 -90.527519,398.40952 -90.4375,398.28125 C -90.079354,397.76905 -89.743196,397.24476 -89.40625,396.71875 C -89.386214,396.68757 -89.363713,396.65623 -89.34375,396.625 C -89.005018,396.09336 -88.660444,395.54492 -88.34375,395 C -88.327448,394.97204 -88.328745,394.93425 -88.3125,394.90625 C -87.992703,394.35336 -87.671704,393.81572 -87.375,393.25 C -87.364049,393.22918 -87.35467,393.20834 -87.34375,393.1875 C -87.04785,392.62123 -86.772341,392.04707 -86.5,391.46875 C -86.490102,391.44776 -86.478617,391.42726 -86.46875,391.40625 C -86.19322,390.81886 -85.938287,390.22396 -85.6875,389.625 C -85.682276,389.61253 -85.661464,389.60623 -85.65625,389.59375 C -85.404394,388.99072 -85.163816,388.36391 -84.9375,387.75 C -84.934085,387.74071 -84.94091,387.72804 -84.9375,387.71875 C -84.471136,386.45123 -84.041944,385.18347 -83.6875,383.875 C -83.631821,383.66858 -83.584122,383.45755 -83.53125,383.25 C -82.909703,380.81008 -82.495885,378.29638 -82.28125,375.71875 C -82.777943,375.9663 -83.379,376.10895 -84.0625,376.125 C -85.135038,376.20658 -86.016005,375.93931 -86.71875,375.46875 z M -128.1875,325.78125 C -130.91947,325.78612 -133.702,326.01961 -136.46875,326.53125 C -135.46183,327.69945 -135.04743,329.45615 -135.4375,330.9375 C -131.79498,330.28315 -128.17352,330.10536 -124.625,330.40625 C -124.62953,330.41429 -124.62042,330.42949 -124.625,330.4375 C -124.13186,330.47905 -123.64432,330.53516 -123.15625,330.59375 C -123.02165,330.60991 -122.8842,330.60756 -122.75,330.625 C -122.68761,330.63317 -122.62483,330.6478 -122.5625,330.65625 C -122.00574,330.7312 -121.45577,330.80952 -120.90625,330.90625 C -120.67752,330.94679 -120.44649,330.98691 -120.21875,331.03125 C -119.83626,331.10518 -119.44116,331.19693 -119.0625,331.28125 C -119.04267,331.2857 -119.01982,331.27677 -119,331.28125 C -118.41794,331.41177 -117.85377,331.56412 -117.28125,331.71875 C -116.11473,332.03511 -114.9741,332.39751 -113.84375,332.8125 C -113.52628,332.92869 -113.22003,333.06385 -112.90625,333.1875 C -112.66587,333.28246 -112.42596,333.36939 -112.1875,333.46875 C -112.15706,333.48141 -112.12416,333.48727 -112.09375,333.5 C -111.57388,333.71805 -111.04144,333.94877 -110.53125,334.1875 C -110.50149,334.20144 -110.46722,334.20475 -110.4375,334.21875 C -109.92794,334.45864 -109.4367,334.73983 -108.9375,335 C -108.90841,335.0152 -108.8728,335.01598 -108.84375,335.03125 C -108.34528,335.29253 -107.86243,335.56259 -107.375,335.84375 C -107.33514,335.86679 -107.28978,335.88309 -107.25,335.90625 C -106.7752,336.18222 -106.30738,336.48672 -105.84375,336.78125 C -105.80463,336.80617 -105.75778,336.8187 -105.71875,336.84375 C -105.25677,337.13943 -104.8252,337.4362 -104.375,337.75 C -104.332,337.78004 -104.29288,337.81355 -104.25,337.84375 C -103.8045,338.15673 -103.3395,338.48205 -102.90625,338.8125 C -102.55586,339.08078 -102.21646,339.37719 -101.875,339.65625 C -101.75934,339.75051 -101.64593,339.84197 -101.53125,339.9375 C -101.49159,339.97062 -101.44578,339.99799 -101.40625,340.03125 C -101.31658,340.10651 -101.24531,340.20521 -101.15625,340.28125 C -100.37409,340.95066 -99.605172,341.61882 -98.875,342.34375 C -98.843333,342.37519 -98.812816,342.40596 -98.78125,342.4375 C -98.388315,342.82938 -98.002751,343.21669 -97.625,343.625 C -97.595063,343.65738 -97.561085,343.68627 -97.53125,343.71875 C -97.153878,344.12922 -96.767713,344.57341 -96.40625,345 C -96.387317,345.02237 -96.362637,345.04009 -96.34375,345.0625 C -95.974106,345.50064 -95.633496,345.95156 -95.28125,346.40625 C -95.263429,346.42924 -95.236524,346.44573 -95.21875,346.46875 C -94.867301,346.92441 -94.520848,347.37193 -94.1875,347.84375 C -94.010017,348.09441 -93.859525,348.37027 -93.6875,348.625 C -93.519974,348.87376 -93.349941,349.12203 -93.1875,349.375 C -93.179714,349.38708 -93.164024,349.39416 -93.15625,349.40625 C -92.834849,349.9079 -92.519636,350.41966 -92.21875,350.9375 C -91.71376,351.80661 -91.257018,352.71185 -90.8125,353.625 C -90.730548,353.79265 -90.642253,353.95609 -90.5625,354.125 C -90.546594,354.15883 -90.515822,354.18486 -90.5,354.21875 C -90.260076,354.73048 -90.031923,355.22712 -89.8125,355.75 C -89.675314,356.07766 -89.566844,356.41739 -89.4375,356.75 C -89.345138,356.98687 -89.244371,357.22979 -89.15625,357.46875 C -89.128719,357.54363 -89.089633,357.61238 -89.0625,357.6875 C -87.84815,361.03994 -87.063871,364.58928 -86.75,368.28125 C -86.233383,367.951 -85.62394,367.71235 -84.875,367.625 C -83.852953,367.45017 -82.97886,367.60929 -82.28125,368 C -82.62163,363.90905 -83.505812,359.96817 -84.84375,356.25 C -85.040879,355.70217 -85.251702,355.16298 -85.46875,354.625 C -85.514411,354.51182 -85.547219,354.39398 -85.59375,354.28125 C -85.624194,354.20722 -85.6567,354.1363 -85.6875,354.0625 C -85.948443,353.43724 -86.213919,352.82748 -86.5,352.21875 C -86.766443,351.65369 -87.055322,351.08345 -87.34375,350.53125 C -87.365332,350.48984 -87.384551,350.44758 -87.40625,350.40625 C -87.445484,350.33168 -87.49162,350.26182 -87.53125,350.1875 C -87.80587,349.67135 -88.08236,349.15899 -88.375,348.65625 C -88.703856,348.09229 -89.023226,347.54839 -89.375,347 C -89.382783,346.98785 -89.398457,346.98089 -89.40625,346.96875 C -89.766348,346.40854 -90.147911,345.85573 -90.53125,345.3125 C -91.29759,344.22595 -92.117592,343.16484 -92.96875,342.15625 C -92.98326,342.13905 -92.985466,342.11093 -93,342.09375 C -93.418803,341.59896 -93.84318,341.13153 -94.28125,340.65625 C -94.296315,340.63987 -94.297411,340.61011 -94.3125,340.59375 C -94.746679,340.12409 -95.203983,339.66885 -95.65625,339.21875 C -95.677098,339.19795 -95.697863,339.17701 -95.71875,339.15625 C -96.645598,338.23737 -97.596133,337.36539 -98.59375,336.53125 C -98.616354,336.51227 -98.633609,336.48768 -98.65625,336.46875 C -99.138466,336.06712 -99.627443,335.66248 -100.125,335.28125 C -100.15473,335.2584 -100.18897,335.24153 -100.21875,335.21875 C -100.717,334.8389 -101.23718,334.48402 -101.75,334.125 C -101.78062,334.1035 -101.81308,334.08392 -101.84375,334.0625 C -102.38436,333.68491 -102.94276,333.32335 -103.5,332.96875 C -104.04017,332.62601 -104.5712,332.28877 -105.125,331.96875 C -105.14515,331.95707 -105.16733,331.94915 -105.1875,331.9375 C -105.74195,331.61822 -106.30772,331.29608 -106.875,331 C -106.89573,330.98917 -106.91675,330.97955 -106.9375,330.96875 C -108.69677,330.05254 -110.52273,329.24869 -112.40625,328.5625 C -113.03065,328.33435 -113.64652,328.13873 -114.28125,327.9375 C -114.63486,327.82591 -114.9865,327.69697 -115.34375,327.59375 C -115.6346,327.50972 -115.92555,327.42217 -116.21875,327.34375 C -116.23838,327.33845 -116.26161,327.34902 -116.28125,327.34375 C -116.90003,327.17913 -117.52747,327.01418 -118.15625,326.875 C -118.19806,326.86566 -118.23941,326.85298 -118.28125,326.84375 C -118.89106,326.71057 -119.50638,326.57747 -120.125,326.46875 C -120.18715,326.4577 -120.25029,326.4483 -120.3125,326.4375 C -120.91198,326.33471 -121.5178,326.26685 -122.125,326.1875 C -122.20857,326.17641 -122.29133,326.16688 -122.375,326.15625 C -122.95353,326.08388 -123.53997,326.01943 -124.125,325.96875 C -124.2391,325.95873 -124.35449,325.94666 -124.46875,325.9375 C -125.70336,325.83848 -126.93722,325.77902 -128.1875,325.78125 z M -143.625,328.46875 C -144.17194,328.66358 -144.71461,328.88007 -145.25,329.09375 C -145.36247,329.13864 -145.4818,329.17304 -145.59375,329.21875 C -145.66709,329.24885 -145.73935,329.28204 -145.8125,329.3125 C -146.4334,329.57106 -147.04949,329.84037 -147.65625,330.125 C -147.84654,330.21386 -148.03011,330.31498 -148.21875,330.40625 C -149.2165,330.88897 -150.20577,331.38956 -151.15625,331.9375 C -151.2818,332.01014 -151.40645,332.08246 -151.53125,332.15625 C -152.57345,332.77245 -153.57526,333.43107 -154.5625,334.125 C -154.56959,334.12997 -154.58666,334.12002 -154.59375,334.125 C -155.67297,334.88446 -156.71053,335.71538 -157.71875,336.5625 C -157.73605,336.57704 -157.76397,336.57918 -157.78125,336.59375 C -158.27074,337.00624 -158.74703,337.44279 -159.21875,337.875 C -159.23545,337.89033 -159.26458,337.8909 -159.28125,337.90625 C -159.75252,338.33929 -160.2034,338.79788 -160.65625,339.25 C -161.12482,339.71783 -161.58309,340.16869 -162.03125,340.65625 C -162.06122,340.68891 -162.09513,340.71726 -162.125,340.75 C -162.54213,341.2064 -162.94505,341.68328 -163.34375,342.15625 C -163.6269,342.49297 -163.88308,342.84313 -164.15625,343.1875 C -164.29822,343.36588 -164.45439,343.53823 -164.59375,343.71875 C -164.61668,343.74856 -164.6334,343.78264 -164.65625,343.8125 C -165.44134,344.83461 -166.1763,345.88148 -166.875,346.96875 C -166.93595,347.0639 -167.00225,347.15441 -167.0625,347.25 C -167.37541,347.74644 -167.67497,348.2421 -167.96875,348.75 C -168.28695,349.29846 -168.61033,349.84376 -168.90625,350.40625 C -168.92121,350.43473 -168.9226,350.47149 -168.9375,350.5 C -169.23222,351.06312 -169.50944,351.64224 -169.78125,352.21875 C -169.83493,352.33274 -169.88475,352.44806 -169.9375,352.5625 C -170.16612,353.05785 -170.41364,353.55785 -170.625,354.0625 C -171.39651,355.90655 -172.03442,357.81194 -172.5625,359.75 C -172.62446,359.97832 -172.69148,360.20778 -172.75,360.4375 C -173.02117,361.50201 -173.24191,362.56364 -173.4375,363.65625 C -173.53176,364.18282 -173.61129,364.71741 -173.6875,365.25 C -173.71001,365.40547 -173.72908,365.56293 -173.75,365.71875 C -173.76522,365.83347 -173.79813,365.94752 -173.8125,366.0625 C -173.89107,366.69112 -173.94702,367.33255 -174,367.96875 C -173.50331,367.72118 -172.90225,367.57855 -172.21875,367.5625 C -171.14622,367.48089 -170.26525,367.74819 -169.5625,368.21875 C -169.51954,367.72745 -169.43533,367.23781 -169.375,366.75 C -169.3508,366.55202 -169.33948,366.35336 -169.3125,366.15625 C -169.23551,365.59964 -169.16179,365.05124 -169.0625,364.5 C -169.05503,364.45816 -169.03884,364.4168 -169.03125,364.375 C -168.70781,362.59385 -168.26162,360.85041 -167.71875,359.15625 C -167.71577,359.147 -167.72174,359.13425 -167.71875,359.125 C -167.53516,358.55348 -167.33239,357.99792 -167.125,357.4375 C -167.12161,357.42836 -167.12839,357.41538 -167.125,357.40625 C -166.98846,357.03809 -166.8341,356.67565 -166.6875,356.3125 C -166.60666,356.1124 -166.52141,355.9175 -166.4375,355.71875 C -166.42468,355.68836 -166.41914,355.65535 -166.40625,355.625 C -165.95897,354.57191 -165.46714,353.53768 -164.9375,352.53125 C -164.92248,352.50265 -164.92134,352.46607 -164.90625,352.4375 C -164.64029,351.93499 -164.34822,351.45877 -164.0625,350.96875 C -163.76722,350.46232 -163.44082,349.96126 -163.125,349.46875 C -163.10001,349.42968 -163.08762,349.38273 -163.0625,349.34375 C -162.87204,349.04888 -162.66642,348.75842 -162.46875,348.46875 C -162.32861,348.26291 -162.20635,348.04711 -162.0625,347.84375 C -161.74716,347.39887 -161.42593,346.96294 -161.09375,346.53125 C -161.08488,346.5197 -161.07138,346.51154 -161.0625,346.5 C -160.94843,346.35208 -160.83476,346.20883 -160.71875,346.0625 C -160.44443,345.71561 -160.16051,345.36958 -159.875,345.03125 C -159.51812,344.60969 -159.1544,344.18815 -158.78125,343.78125 C -158.75169,343.74894 -158.71716,343.71972 -158.6875,343.6875 C -158.28645,343.25182 -157.8577,342.82526 -157.4375,342.40625 C -157.04108,342.01196 -156.66201,341.59689 -156.25,341.21875 C -156.22274,341.1937 -156.18358,341.18123 -156.15625,341.15625 C -155.73765,340.7741 -155.30904,340.39625 -154.875,340.03125 C -154.85248,340.0123 -154.83507,339.98766 -154.8125,339.96875 C -154.62957,339.81558 -154.43559,339.68131 -154.25,339.53125 C -153.9713,339.30582 -153.69135,339.09357 -153.40625,338.875 C -152.93915,338.51679 -152.48247,338.15103 -152,337.8125 C -151.01594,337.1223 -149.98873,336.48233 -148.9375,335.875 C -148.92517,335.86786 -148.91859,335.85088 -148.90625,335.84375 C -148.70056,335.7252 -148.48943,335.61524 -148.28125,335.5 C -147.94939,335.31587 -147.61861,335.14399 -147.28125,334.96875 C -146.24206,334.42896 -145.18207,333.92111 -144.09375,333.46875 C -144.03373,333.4438 -143.96641,333.43092 -143.90625,333.40625 C -143.40695,333.20211 -142.88557,332.99842 -142.375,332.8125 C -142.35324,332.80456 -142.33428,332.78916 -142.3125,332.78125 C -142.25107,332.75899 -142.18659,332.74074 -142.125,332.71875 C -143.24537,331.63597 -143.86867,329.97795 -143.625,328.46875 z M -169.53125,375.40625 C -170.04787,375.73648 -170.65731,375.97515 -171.40625,376.0625 C -172.4283,376.23731 -173.30239,376.07821 -174,375.6875 C -173.65962,379.77844 -172.77544,383.71933 -171.4375,387.4375 C -171.20219,388.09143 -170.95113,388.73516 -170.6875,389.375 C -170.65358,389.45734 -170.62814,389.5429 -170.59375,389.625 C -170.35956,390.18523 -170.09816,390.73429 -169.84375,391.28125 C -169.64148,391.71503 -169.43399,392.13619 -169.21875,392.5625 C -169.12113,392.7565 -169.03766,392.96405 -168.9375,393.15625 C -168.92014,393.18945 -168.89244,393.21685 -168.875,393.25 C -168.57365,393.82479 -168.26108,394.37917 -167.9375,394.9375 C -167.9258,394.95764 -167.91798,394.97988 -167.90625,395 C -167.57468,395.57012 -167.22901,396.13504 -166.875,396.6875 C -166.87019,396.69499 -166.87981,396.71126 -166.875,396.71875 C -166.51293,397.28309 -166.13468,397.82959 -165.75,398.375 C -165.36666,398.91823 -164.96838,399.44321 -164.5625,399.96875 C -164.22713,400.40274 -163.88093,400.82952 -163.53125,401.25 C -163.45578,401.34089 -163.38866,401.44095 -163.3125,401.53125 C -163.30307,401.54241 -163.29069,401.55135 -163.28125,401.5625 C -162.43433,402.56476 -161.55323,403.54261 -160.625,404.46875 C -160.61458,404.47915 -160.60418,404.48961 -160.59375,404.5 C -160.54178,404.55163 -160.48971,404.60488 -160.4375,404.65625 C -160.02842,405.05977 -159.61137,405.45568 -159.1875,405.84375 C -159.16033,405.86856 -159.12098,405.8815 -159.09375,405.90625 C -158.6314,406.32748 -158.16677,406.72266 -157.6875,407.125 C -157.49928,407.28269 -157.31561,407.43916 -157.125,407.59375 C -156.28582,408.27572 -155.41787,408.94002 -154.53125,409.5625 C -154.50048,409.58404 -154.46832,409.60353 -154.4375,409.625 C -152.83303,410.74566 -151.15131,411.77529 -149.40625,412.6875 C -148.81344,412.99738 -148.23265,413.27806 -147.625,413.5625 C -147.58293,413.58221 -147.54213,413.60542 -147.5,413.625 C -146.32463,414.17084 -145.10173,414.67809 -143.875,415.125 C -142.62582,415.58009 -141.35966,415.96531 -140.0625,416.3125 C -140.04037,416.31842 -140.02214,416.33786 -140,416.34375 C -139.3775,416.51072 -138.75552,416.67159 -138.125,416.8125 C -137.66108,416.91519 -137.18784,416.97394 -136.71875,417.0625 C -136.46771,417.11042 -136.22087,417.17499 -135.96875,417.21875 C -135.83436,417.24179 -135.69728,417.25938 -135.5625,417.28125 C -135.01361,417.37148 -134.45975,417.46094 -133.90625,417.53125 C -133.63742,417.56488 -133.36401,417.59603 -133.09375,417.625 C -132.77964,417.65917 -132.47163,417.69106 -132.15625,417.71875 C -132.12526,417.72143 -132.09351,417.71613 -132.0625,417.71875 C -131.97925,417.72589 -131.89583,417.74332 -131.8125,417.75 C -127.88024,418.06537 -123.84536,417.87077 -119.8125,417.125 C -120.81941,415.95678 -121.20256,414.23136 -120.8125,412.75 C -124.45648,413.40461 -128.10638,413.55138 -131.65625,413.25 C -131.74022,413.24293 -131.82243,413.22632 -131.90625,413.21875 C -131.95889,413.21396 -132.00989,413.19249 -132.0625,413.1875 C -133.51083,413.05111 -134.94267,412.84341 -136.34375,412.5625 C -137.82813,412.26217 -139.28466,411.89496 -140.71875,411.4375 C -140.72811,411.43452 -140.74065,411.44049 -140.75,411.4375 C -141.02976,411.34842 -141.3166,411.25105 -141.59375,411.15625 C -141.89376,411.05326 -142.20267,410.95348 -142.5,410.84375 C -143.03879,410.64555 -143.56573,410.43836 -144.09375,410.21875 C -144.12422,410.20605 -144.15706,410.20027 -144.1875,410.1875 C -144.51361,410.05096 -144.83444,409.89455 -145.15625,409.75 C -145.38632,409.64648 -145.61567,409.54514 -145.84375,409.4375 C -146.35877,409.19482 -146.84059,408.95044 -147.34375,408.6875 C -147.37269,408.67241 -147.40859,408.6714 -147.4375,408.65625 C -147.92844,408.39819 -148.42716,408.12062 -148.90625,407.84375 C -148.94624,407.82068 -148.99133,407.80445 -149.03125,407.78125 C -149.50894,407.50306 -149.97218,407.2027 -150.4375,406.90625 C -150.47668,406.88136 -150.52341,406.86877 -150.5625,406.84375 C -151.02656,406.54592 -151.45507,406.22179 -151.90625,405.90625 C -152.39499,405.56558 -152.86964,405.23661 -153.34375,404.875 C -153.81786,404.51339 -154.29128,404.13211 -154.75,403.75 C -154.78984,403.71681 -154.83528,403.68959 -154.875,403.65625 C -155.29128,403.30601 -155.69167,402.92856 -156.09375,402.5625 C -156.13215,402.52761 -156.18048,402.50379 -156.21875,402.46875 C -156.62468,402.09643 -157.01543,401.73176 -157.40625,401.34375 C -157.42194,401.3282 -157.42183,401.29682 -157.4375,401.28125 C -157.84441,400.87597 -158.26633,400.45302 -158.65625,400.03125 C -158.68635,399.99871 -158.71999,399.97014 -158.75,399.9375 C -159.12311,399.53137 -159.48685,399.10829 -159.84375,398.6875 C -159.87198,398.65418 -159.90937,398.62717 -159.9375,398.59375 C -160.30241,398.16075 -160.65274,397.72912 -161,397.28125 C -161.01783,397.25824 -161.04472,397.2418 -161.0625,397.21875 C -161.78345,396.28406 -162.45042,395.31434 -163.09375,394.3125 C -163.10146,394.30049 -163.1173,394.29327 -163.125,394.28125 C -163.4484,393.77824 -163.76052,393.26758 -164.0625,392.75 C -164.56749,391.88089 -165.02423,390.97565 -165.46875,390.0625 C -165.55031,389.89496 -165.63929,389.73149 -165.71875,389.5625 C -165.73448,389.52918 -165.7656,389.50212 -165.78125,389.46875 C -165.96757,389.06969 -166.13808,388.65696 -166.3125,388.25 C -166.37897,388.09556 -166.43535,387.93665 -166.5,387.78125 C -166.52166,387.72896 -166.54104,387.67741 -166.5625,387.625 C -166.78372,387.08703 -166.98846,386.54905 -167.1875,386 C -168.40381,382.64474 -169.21708,379.10175 -169.53125,375.40625 z"
           style="fill:#ffffff;fill-opacity:1;fill-rule:evenodd;stroke:none;stroke-opacity:1"
           id="path2710" />
      </g>
    </g>
    <g
       transform="matrix(0.1519082,0,0,0.1519082,50.695073,-15.921421)"
       id="g3503"
       style="fill:#ffffff;fill-opacity:1;filter:url(#filter3651)">
      <path
         class="fil0"
         d="M -142.01194,387.96328 L -146.03384,387.96328 L -146.03384,338.00448 L -142.01194,338.00448 L -142.01194,387.96328 z"
         id="path3505"
         style="fill:#ffffff;fill-opacity:1;fill-rule:evenodd;stroke:none;stroke-opacity:1" />
      <path
         class="fil0"
         d="M -150.1042,347.72006 C -145.25853,346.31483 -124.85828,349.07684 -129.02556,368.82294 C -130.55194,375.99454 -138.88649,379.50757 -142.90838,382.51194 C -152.45435,389.65932 -144.24095,406.64332 -144.24095,406.64332 C -144.24095,406.64332 -148.67473,393.43894 -138.76534,387.18803 C -129.65549,381.44588 -98.23135,384.13521 -98.35249,366.4001 C -98.54631,332.43201 -151.50944,344.69147 -150.1042,347.72006 z"
         id="path3507"
         style="fill:#ffffff;fill-opacity:1;fill-rule:evenodd;stroke:none;stroke-opacity:1" />
      <path
         style="fill:#ffffff;fill-opacity:1;fill-rule:nonzero;stroke:none;stroke-width:115;stroke-linecap:butt;stroke-linejoin:miter;marker:none;marker-start:none;marker-mid:none;marker-end:none;stroke-miterlimit:4;stroke-dashoffset:0;stroke-opacity:1;visibility:visible;display:inline;overflow:visible"
         d="M -84.35074,374.13756 C -85.60955,374.13756 -86.63119,373.11593 -86.63119,371.85712 C -86.63119,370.59832 -85.60955,369.57668 -84.35074,369.57668 C -83.09194,369.57668 -82.0703,370.59832 -82.0703,371.85712 C -82.0703,373.11593 -83.09194,374.13756 -84.35074,374.13756 z"
         id="path3509" />
      <g
         style="fill:#ffffff;fill-opacity:1"
         id="g3511">
        <path
           style="fill:#ffffff;fill-opacity:1;fill-rule:nonzero;stroke:none;stroke-width:115;stroke-linecap:butt;stroke-linejoin:miter;marker:none;marker-start:none;marker-mid:none;marker-end:none;stroke-miterlimit:4;stroke-dashoffset:0;stroke-opacity:1;visibility:visible;display:inline;overflow:visible"
           d="M -137.26377,328.91985 C -136.93796,330.13576 -137.66036,331.38701 -138.87628,331.71281 C -140.09219,332.03861 -141.34344,331.31621 -141.66924,330.10029 C -141.99504,328.88438 -141.27263,327.63313 -140.05673,327.30733 C -138.84081,326.98153 -137.58957,327.70394 -137.26377,328.91985 z"
           id="path3513" />
        <path
           style="fill:#ffffff;fill-opacity:1;fill-rule:nonzero;stroke:none;stroke-width:115;stroke-linecap:butt;stroke-linejoin:miter;marker:none;marker-start:none;marker-mid:none;marker-end:none;stroke-miterlimit:4;stroke-dashoffset:0;stroke-opacity:1;visibility:visible;display:inline;overflow:visible"
           d="M -114.58972,413.54057 C -114.26392,414.75648 -114.98632,416.00773 -116.20223,416.33353 C -117.41814,416.65933 -118.66939,415.93693 -118.99519,414.72101 C -119.321,413.5051 -118.59859,412.25385 -117.38268,411.92805 C -116.16676,411.60225 -114.91552,412.32466 -114.58972,413.54057 z"
           id="path3515" />
        <path
           id="path3517"
           style="fill:#ffffff;fill-opacity:1;fill-rule:evenodd;stroke:none;stroke-opacity:1"
           d="M -86.71875,375.46875 C -86.758481,375.92253 -86.820446,376.36169 -86.875,376.8125 C -86.896068,376.98933 -86.914218,377.16761 -86.9375,377.34375 C -86.959979,377.51106 -87.006746,377.6769 -87.03125,377.84375 C -87.151107,378.65987 -87.301115,379.47731 -87.46875,380.28125 C -87.518252,380.52082 -87.54014,380.76196 -87.59375,381 C -87.865086,382.19469 -88.188474,383.37044 -88.5625,384.53125 C -88.565574,384.54084 -88.559419,384.55291 -88.5625,384.5625 C -88.894146,385.5949 -89.278992,386.59835 -89.6875,387.59375 C -89.729668,387.69638 -89.769522,387.80397 -89.8125,387.90625 C -89.883215,388.07465 -89.958387,388.23899 -90.03125,388.40625 C -90.19641,388.78522 -90.355001,389.15755 -90.53125,389.53125 C -90.545276,389.56099 -90.548406,389.5953 -90.5625,389.625 C -91.257636,391.08969 -92.050764,392.5107 -92.90625,393.875 C -92.978636,393.99064 -93.051479,394.10382 -93.125,394.21875 C -93.152757,394.26207 -93.190837,394.30054 -93.21875,394.34375 C -93.51389,394.8014 -93.812022,395.27275 -94.125,395.71875 C -94.154749,395.76105 -94.188847,395.80156 -94.21875,395.84375 C -94.533118,396.28818 -94.855697,396.72409 -95.1875,397.15625 C -95.219317,397.1976 -95.249281,397.24003 -95.28125,397.28125 C -95.614943,397.71254 -95.961715,398.14414 -96.3125,398.5625 C -96.341006,398.59639 -96.377638,398.62245 -96.40625,398.65625 C -96.763386,399.07945 -97.125663,399.497 -97.5,399.90625 C -97.529729,399.93867 -97.563919,399.96768 -97.59375,400 C -97.969338,400.40799 -98.3576,400.79411 -98.75,401.1875 C -98.781198,401.21873 -98.812453,401.25012 -98.84375,401.28125 C -99.237479,401.67345 -99.621089,402.06056 -100.03125,402.4375 C -100.06376,402.46737 -100.09239,402.50148 -100.125,402.53125 C -100.53733,402.9078 -100.9778,403.29568 -101.40625,403.65625 C -101.42371,403.67091 -101.45127,403.67286 -101.46875,403.6875 C -101.91362,404.06062 -102.35071,404.426 -102.8125,404.78125 C -103.11995,405.01782 -103.43582,405.24067 -103.75,405.46875 C -103.9263,405.59661 -104.10267,405.7185 -104.28125,405.84375 C -104.29321,405.85215 -104.30053,405.86661 -104.3125,405.875 C -104.4667,405.98291 -104.62537,406.08156 -104.78125,406.1875 C -105.36466,406.58473 -105.9583,406.97594 -106.5625,407.34375 C -106.82815,407.50496 -107.10501,407.65689 -107.375,407.8125 C -107.88661,408.10829 -108.38113,408.41317 -108.90625,408.6875 C -109.39974,408.9447 -109.89968,409.16776 -110.40625,409.40625 C -110.44853,409.42621 -110.48889,409.44892 -110.53125,409.46875 C -110.57395,409.48867 -110.61346,409.51146 -110.65625,409.53125 C -111.16173,409.76578 -111.67124,410.00416 -112.1875,410.21875 C -112.51626,410.35499 -112.85379,410.46539 -113.1875,410.59375 C -113.42506,410.68545 -113.6666,410.78756 -113.90625,410.875 C -113.98137,410.9023 -114.04964,410.94185 -114.125,410.96875 C -113.00463,412.05153 -112.41258,413.70955 -112.65625,415.21875 C -112.10014,415.02066 -111.54417,414.81134 -111,414.59375 C -110.89587,414.55191 -110.79125,414.51132 -110.6875,414.46875 C -110.61388,414.43869 -110.54214,414.40541 -110.46875,414.375 C -109.89968,414.13802 -109.33847,413.8839 -108.78125,413.625 C -108.73067,413.60163 -108.67546,413.58605 -108.625,413.5625 C -108.05171,413.29358 -107.46631,413.01033 -106.90625,412.71875 C -106.87252,412.70127 -106.84618,412.6738 -106.8125,412.65625 C -106.33731,412.4074 -105.87147,412.17104 -105.40625,411.90625 C -105.29179,411.84135 -105.17627,411.78457 -105.0625,411.71875 C -104.95718,411.65761 -104.85478,411.5932 -104.75,411.53125 C -103.7078,410.91505 -102.70599,410.25643 -101.71875,409.5625 C -101.15695,409.16761 -100.60544,408.76274 -100.0625,408.34375 C -99.547874,407.94731 -99.058105,407.54152 -98.5625,407.125 C -98.54529,407.11054 -98.517188,407.10823 -98.5,407.09375 C -98.015671,406.68546 -97.528179,406.23926 -97.0625,405.8125 C -97.035266,405.78755 -96.995924,405.77502 -96.96875,405.75 C -96.504633,405.32262 -96.070065,404.88256 -95.625,404.4375 C -94.687854,403.50185 -93.791595,402.54444 -92.9375,401.53125 C -92.909377,401.49789 -92.871779,401.47094 -92.84375,401.4375 C -92.445889,400.96161 -92.065429,400.4597 -91.6875,399.96875 C -91.660751,399.9341 -91.620402,399.90973 -91.59375,399.875 C -91.286639,399.4737 -91.012338,399.06711 -90.71875,398.65625 C -90.627461,398.52894 -90.527519,398.40952 -90.4375,398.28125 C -90.079354,397.76905 -89.743196,397.24476 -89.40625,396.71875 C -89.386214,396.68757 -89.363713,396.65623 -89.34375,396.625 C -89.005018,396.09336 -88.660444,395.54492 -88.34375,395 C -88.327448,394.97204 -88.328745,394.93425 -88.3125,394.90625 C -87.992703,394.35336 -87.671704,393.81572 -87.375,393.25 C -87.364049,393.22918 -87.35467,393.20834 -87.34375,393.1875 C -87.04785,392.62123 -86.772341,392.04707 -86.5,391.46875 C -86.490102,391.44776 -86.478617,391.42726 -86.46875,391.40625 C -86.19322,390.81886 -85.938287,390.22396 -85.6875,389.625 C -85.682276,389.61253 -85.661464,389.60623 -85.65625,389.59375 C -85.404394,388.99072 -85.163816,388.36391 -84.9375,387.75 C -84.934085,387.74071 -84.94091,387.72804 -84.9375,387.71875 C -84.471136,386.45123 -84.041944,385.18347 -83.6875,383.875 C -83.631821,383.66858 -83.584122,383.45755 -83.53125,383.25 C -82.909703,380.81008 -82.495885,378.29638 -82.28125,375.71875 C -82.777943,375.9663 -83.379,376.10895 -84.0625,376.125 C -85.135038,376.20658 -86.016005,375.93931 -86.71875,375.46875 z M -128.1875,325.78125 C -130.91947,325.78612 -133.702,326.01961 -136.46875,326.53125 C -135.46183,327.69945 -135.04743,329.45615 -135.4375,330.9375 C -131.79498,330.28315 -128.17352,330.10536 -124.625,330.40625 C -124.62953,330.41429 -124.62042,330.42949 -124.625,330.4375 C -124.13186,330.47905 -123.64432,330.53516 -123.15625,330.59375 C -123.02165,330.60991 -122.8842,330.60756 -122.75,330.625 C -122.68761,330.63317 -122.62483,330.6478 -122.5625,330.65625 C -122.00574,330.7312 -121.45577,330.80952 -120.90625,330.90625 C -120.67752,330.94679 -120.44649,330.98691 -120.21875,331.03125 C -119.83626,331.10518 -119.44116,331.19693 -119.0625,331.28125 C -119.04267,331.2857 -119.01982,331.27677 -119,331.28125 C -118.41794,331.41177 -117.85377,331.56412 -117.28125,331.71875 C -116.11473,332.03511 -114.9741,332.39751 -113.84375,332.8125 C -113.52628,332.92869 -113.22003,333.06385 -112.90625,333.1875 C -112.66587,333.28246 -112.42596,333.36939 -112.1875,333.46875 C -112.15706,333.48141 -112.12416,333.48727 -112.09375,333.5 C -111.57388,333.71805 -111.04144,333.94877 -110.53125,334.1875 C -110.50149,334.20144 -110.46722,334.20475 -110.4375,334.21875 C -109.92794,334.45864 -109.4367,334.73983 -108.9375,335 C -108.90841,335.0152 -108.8728,335.01598 -108.84375,335.03125 C -108.34528,335.29253 -107.86243,335.56259 -107.375,335.84375 C -107.33514,335.86679 -107.28978,335.88309 -107.25,335.90625 C -106.7752,336.18222 -106.30738,336.48672 -105.84375,336.78125 C -105.80463,336.80617 -105.75778,336.8187 -105.71875,336.84375 C -105.25677,337.13943 -104.8252,337.4362 -104.375,337.75 C -104.332,337.78004 -104.29288,337.81355 -104.25,337.84375 C -103.8045,338.15673 -103.3395,338.48205 -102.90625,338.8125 C -102.55586,339.08078 -102.21646,339.37719 -101.875,339.65625 C -101.75934,339.75051 -101.64593,339.84197 -101.53125,339.9375 C -101.49159,339.97062 -101.44578,339.99799 -101.40625,340.03125 C -101.31658,340.10651 -101.24531,340.20521 -101.15625,340.28125 C -100.37409,340.95066 -99.605172,341.61882 -98.875,342.34375 C -98.843333,342.37519 -98.812816,342.40596 -98.78125,342.4375 C -98.388315,342.82938 -98.002751,343.21669 -97.625,343.625 C -97.595063,343.65738 -97.561085,343.68627 -97.53125,343.71875 C -97.153878,344.12922 -96.767713,344.57341 -96.40625,345 C -96.387317,345.02237 -96.362637,345.04009 -96.34375,345.0625 C -95.974106,345.50064 -95.633496,345.95156 -95.28125,346.40625 C -95.263429,346.42924 -95.236524,346.44573 -95.21875,346.46875 C -94.867301,346.92441 -94.520848,347.37193 -94.1875,347.84375 C -94.010017,348.09441 -93.859525,348.37027 -93.6875,348.625 C -93.519974,348.87376 -93.349941,349.12203 -93.1875,349.375 C -93.179714,349.38708 -93.164024,349.39416 -93.15625,349.40625 C -92.834849,349.9079 -92.519636,350.41966 -92.21875,350.9375 C -91.71376,351.80661 -91.257018,352.71185 -90.8125,353.625 C -90.730548,353.79265 -90.642253,353.95609 -90.5625,354.125 C -90.546594,354.15883 -90.515822,354.18486 -90.5,354.21875 C -90.260076,354.73048 -90.031923,355.22712 -89.8125,355.75 C -89.675314,356.07766 -89.566844,356.41739 -89.4375,356.75 C -89.345138,356.98687 -89.244371,357.22979 -89.15625,357.46875 C -89.128719,357.54363 -89.089633,357.61238 -89.0625,357.6875 C -87.84815,361.03994 -87.063871,364.58928 -86.75,368.28125 C -86.233383,367.951 -85.62394,367.71235 -84.875,367.625 C -83.852953,367.45017 -82.97886,367.60929 -82.28125,368 C -82.62163,363.90905 -83.505812,359.96817 -84.84375,356.25 C -85.040879,355.70217 -85.251702,355.16298 -85.46875,354.625 C -85.514411,354.51182 -85.547219,354.39398 -85.59375,354.28125 C -85.624194,354.20722 -85.6567,354.1363 -85.6875,354.0625 C -85.948443,353.43724 -86.213919,352.82748 -86.5,352.21875 C -86.766443,351.65369 -87.055322,351.08345 -87.34375,350.53125 C -87.365332,350.48984 -87.384551,350.44758 -87.40625,350.40625 C -87.445484,350.33168 -87.49162,350.26182 -87.53125,350.1875 C -87.80587,349.67135 -88.08236,349.15899 -88.375,348.65625 C -88.703856,348.09229 -89.023226,347.54839 -89.375,347 C -89.382783,346.98785 -89.398457,346.98089 -89.40625,346.96875 C -89.766348,346.40854 -90.147911,345.85573 -90.53125,345.3125 C -91.29759,344.22595 -92.117592,343.16484 -92.96875,342.15625 C -92.98326,342.13905 -92.985466,342.11093 -93,342.09375 C -93.418803,341.59896 -93.84318,341.13153 -94.28125,340.65625 C -94.296315,340.63987 -94.297411,340.61011 -94.3125,340.59375 C -94.746679,340.12409 -95.203983,339.66885 -95.65625,339.21875 C -95.677098,339.19795 -95.697863,339.17701 -95.71875,339.15625 C -96.645598,338.23737 -97.596133,337.36539 -98.59375,336.53125 C -98.616354,336.51227 -98.633609,336.48768 -98.65625,336.46875 C -99.138466,336.06712 -99.627443,335.66248 -100.125,335.28125 C -100.15473,335.2584 -100.18897,335.24153 -100.21875,335.21875 C -100.717,334.8389 -101.23718,334.48402 -101.75,334.125 C -101.78062,334.1035 -101.81308,334.08392 -101.84375,334.0625 C -102.38436,333.68491 -102.94276,333.32335 -103.5,332.96875 C -104.04017,332.62601 -104.5712,332.28877 -105.125,331.96875 C -105.14515,331.95707 -105.16733,331.94915 -105.1875,331.9375 C -105.74195,331.61822 -106.30772,331.29608 -106.875,331 C -106.89573,330.98917 -106.91675,330.97955 -106.9375,330.96875 C -108.69677,330.05254 -110.52273,329.24869 -112.40625,328.5625 C -113.03065,328.33435 -113.64652,328.13873 -114.28125,327.9375 C -114.63486,327.82591 -114.9865,327.69697 -115.34375,327.59375 C -115.6346,327.50972 -115.92555,327.42217 -116.21875,327.34375 C -116.23838,327.33845 -116.26161,327.34902 -116.28125,327.34375 C -116.90003,327.17913 -117.52747,327.01418 -118.15625,326.875 C -118.19806,326.86566 -118.23941,326.85298 -118.28125,326.84375 C -118.89106,326.71057 -119.50638,326.57747 -120.125,326.46875 C -120.18715,326.4577 -120.25029,326.4483 -120.3125,326.4375 C -120.91198,326.33471 -121.5178,326.26685 -122.125,326.1875 C -122.20857,326.17641 -122.29133,326.16688 -122.375,326.15625 C -122.95353,326.08388 -123.53997,326.01943 -124.125,325.96875 C -124.2391,325.95873 -124.35449,325.94666 -124.46875,325.9375 C -125.70336,325.83848 -126.93722,325.77902 -128.1875,325.78125 z M -143.625,328.46875 C -144.17194,328.66358 -144.71461,328.88007 -145.25,329.09375 C -145.36247,329.13864 -145.4818,329.17304 -145.59375,329.21875 C -145.66709,329.24885 -145.73935,329.28204 -145.8125,329.3125 C -146.4334,329.57106 -147.04949,329.84037 -147.65625,330.125 C -147.84654,330.21386 -148.03011,330.31498 -148.21875,330.40625 C -149.2165,330.88897 -150.20577,331.38956 -151.15625,331.9375 C -151.2818,332.01014 -151.40645,332.08246 -151.53125,332.15625 C -152.57345,332.77245 -153.57526,333.43107 -154.5625,334.125 C -154.56959,334.12997 -154.58666,334.12002 -154.59375,334.125 C -155.67297,334.88446 -156.71053,335.71538 -157.71875,336.5625 C -157.73605,336.57704 -157.76397,336.57918 -157.78125,336.59375 C -158.27074,337.00624 -158.74703,337.44279 -159.21875,337.875 C -159.23545,337.89033 -159.26458,337.8909 -159.28125,337.90625 C -159.75252,338.33929 -160.2034,338.79788 -160.65625,339.25 C -161.12482,339.71783 -161.58309,340.16869 -162.03125,340.65625 C -162.06122,340.68891 -162.09513,340.71726 -162.125,340.75 C -162.54213,341.2064 -162.94505,341.68328 -163.34375,342.15625 C -163.6269,342.49297 -163.88308,342.84313 -164.15625,343.1875 C -164.29822,343.36588 -164.45439,343.53823 -164.59375,343.71875 C -164.61668,343.74856 -164.6334,343.78264 -164.65625,343.8125 C -165.44134,344.83461 -166.1763,345.88148 -166.875,346.96875 C -166.93595,347.0639 -167.00225,347.15441 -167.0625,347.25 C -167.37541,347.74644 -167.67497,348.2421 -167.96875,348.75 C -168.28695,349.29846 -168.61033,349.84376 -168.90625,350.40625 C -168.92121,350.43473 -168.9226,350.47149 -168.9375,350.5 C -169.23222,351.06312 -169.50944,351.64224 -169.78125,352.21875 C -169.83493,352.33274 -169.88475,352.44806 -169.9375,352.5625 C -170.16612,353.05785 -170.41364,353.55785 -170.625,354.0625 C -171.39651,355.90655 -172.03442,357.81194 -172.5625,359.75 C -172.62446,359.97832 -172.69148,360.20778 -172.75,360.4375 C -173.02117,361.50201 -173.24191,362.56364 -173.4375,363.65625 C -173.53176,364.18282 -173.61129,364.71741 -173.6875,365.25 C -173.71001,365.40547 -173.72908,365.56293 -173.75,365.71875 C -173.76522,365.83347 -173.79813,365.94752 -173.8125,366.0625 C -173.89107,366.69112 -173.94702,367.33255 -174,367.96875 C -173.50331,367.72118 -172.90225,367.57855 -172.21875,367.5625 C -171.14622,367.48089 -170.26525,367.74819 -169.5625,368.21875 C -169.51954,367.72745 -169.43533,367.23781 -169.375,366.75 C -169.3508,366.55202 -169.33948,366.35336 -169.3125,366.15625 C -169.23551,365.59964 -169.16179,365.05124 -169.0625,364.5 C -169.05503,364.45816 -169.03884,364.4168 -169.03125,364.375 C -168.70781,362.59385 -168.26162,360.85041 -167.71875,359.15625 C -167.71577,359.147 -167.72174,359.13425 -167.71875,359.125 C -167.53516,358.55348 -167.33239,357.99792 -167.125,357.4375 C -167.12161,357.42836 -167.12839,357.41538 -167.125,357.40625 C -166.98846,357.03809 -166.8341,356.67565 -166.6875,356.3125 C -166.60666,356.1124 -166.52141,355.9175 -166.4375,355.71875 C -166.42468,355.68836 -166.41914,355.65535 -166.40625,355.625 C -165.95897,354.57191 -165.46714,353.53768 -164.9375,352.53125 C -164.92248,352.50265 -164.92134,352.46607 -164.90625,352.4375 C -164.64029,351.93499 -164.34822,351.45877 -164.0625,350.96875 C -163.76722,350.46232 -163.44082,349.96126 -163.125,349.46875 C -163.10001,349.42968 -163.08762,349.38273 -163.0625,349.34375 C -162.87204,349.04888 -162.66642,348.75842 -162.46875,348.46875 C -162.32861,348.26291 -162.20635,348.04711 -162.0625,347.84375 C -161.74716,347.39887 -161.42593,346.96294 -161.09375,346.53125 C -161.08488,346.5197 -161.07138,346.51154 -161.0625,346.5 C -160.94843,346.35208 -160.83476,346.20883 -160.71875,346.0625 C -160.44443,345.71561 -160.16051,345.36958 -159.875,345.03125 C -159.51812,344.60969 -159.1544,344.18815 -158.78125,343.78125 C -158.75169,343.74894 -158.71716,343.71972 -158.6875,343.6875 C -158.28645,343.25182 -157.8577,342.82526 -157.4375,342.40625 C -157.04108,342.01196 -156.66201,341.59689 -156.25,341.21875 C -156.22274,341.1937 -156.18358,341.18123 -156.15625,341.15625 C -155.73765,340.7741 -155.30904,340.39625 -154.875,340.03125 C -154.85248,340.0123 -154.83507,339.98766 -154.8125,339.96875 C -154.62957,339.81558 -154.43559,339.68131 -154.25,339.53125 C -153.9713,339.30582 -153.69135,339.09357 -153.40625,338.875 C -152.93915,338.51679 -152.48247,338.15103 -152,337.8125 C -151.01594,337.1223 -149.98873,336.48233 -148.9375,335.875 C -148.92517,335.86786 -148.91859,335.85088 -148.90625,335.84375 C -148.70056,335.7252 -148.48943,335.61524 -148.28125,335.5 C -147.94939,335.31587 -147.61861,335.14399 -147.28125,334.96875 C -146.24206,334.42896 -145.18207,333.92111 -144.09375,333.46875 C -144.03373,333.4438 -143.96641,333.43092 -143.90625,333.40625 C -143.40695,333.20211 -142.88557,332.99842 -142.375,332.8125 C -142.35324,332.80456 -142.33428,332.78916 -142.3125,332.78125 C -142.25107,332.75899 -142.18659,332.74074 -142.125,332.71875 C -143.24537,331.63597 -143.86867,329.97795 -143.625,328.46875 z M -169.53125,375.40625 C -170.04787,375.73648 -170.65731,375.97515 -171.40625,376.0625 C -172.4283,376.23731 -173.30239,376.07821 -174,375.6875 C -173.65962,379.77844 -172.77544,383.71933 -171.4375,387.4375 C -171.20219,388.09143 -170.95113,388.73516 -170.6875,389.375 C -170.65358,389.45734 -170.62814,389.5429 -170.59375,389.625 C -170.35956,390.18523 -170.09816,390.73429 -169.84375,391.28125 C -169.64148,391.71503 -169.43399,392.13619 -169.21875,392.5625 C -169.12113,392.7565 -169.03766,392.96405 -168.9375,393.15625 C -168.92014,393.18945 -168.89244,393.21685 -168.875,393.25 C -168.57365,393.82479 -168.26108,394.37917 -167.9375,394.9375 C -167.9258,394.95764 -167.91798,394.97988 -167.90625,395 C -167.57468,395.57012 -167.22901,396.13504 -166.875,396.6875 C -166.87019,396.69499 -166.87981,396.71126 -166.875,396.71875 C -166.51293,397.28309 -166.13468,397.82959 -165.75,398.375 C -165.36666,398.91823 -164.96838,399.44321 -164.5625,399.96875 C -164.22713,400.40274 -163.88093,400.82952 -163.53125,401.25 C -163.45578,401.34089 -163.38866,401.44095 -163.3125,401.53125 C -163.30307,401.54241 -163.29069,401.55135 -163.28125,401.5625 C -162.43433,402.56476 -161.55323,403.54261 -160.625,404.46875 C -160.61458,404.47915 -160.60418,404.48961 -160.59375,404.5 C -160.54178,404.55163 -160.48971,404.60488 -160.4375,404.65625 C -160.02842,405.05977 -159.61137,405.45568 -159.1875,405.84375 C -159.16033,405.86856 -159.12098,405.8815 -159.09375,405.90625 C -158.6314,406.32748 -158.16677,406.72266 -157.6875,407.125 C -157.49928,407.28269 -157.31561,407.43916 -157.125,407.59375 C -156.28582,408.27572 -155.41787,408.94002 -154.53125,409.5625 C -154.50048,409.58404 -154.46832,409.60353 -154.4375,409.625 C -152.83303,410.74566 -151.15131,411.77529 -149.40625,412.6875 C -148.81344,412.99738 -148.23265,413.27806 -147.625,413.5625 C -147.58293,413.58221 -147.54213,413.60542 -147.5,413.625 C -146.32463,414.17084 -145.10173,414.67809 -143.875,415.125 C -142.62582,415.58009 -141.35966,415.96531 -140.0625,416.3125 C -140.04037,416.31842 -140.02214,416.33786 -140,416.34375 C -139.3775,416.51072 -138.75552,416.67159 -138.125,416.8125 C -137.66108,416.91519 -137.18784,416.97394 -136.71875,417.0625 C -136.46771,417.11042 -136.22087,417.17499 -135.96875,417.21875 C -135.83436,417.24179 -135.69728,417.25938 -135.5625,417.28125 C -135.01361,417.37148 -134.45975,417.46094 -133.90625,417.53125 C -133.63742,417.56488 -133.36401,417.59603 -133.09375,417.625 C -132.77964,417.65917 -132.47163,417.69106 -132.15625,417.71875 C -132.12526,417.72143 -132.09351,417.71613 -132.0625,417.71875 C -131.97925,417.72589 -131.89583,417.74332 -131.8125,417.75 C -127.88024,418.06537 -123.84536,417.87077 -119.8125,417.125 C -120.81941,415.95678 -121.20256,414.23136 -120.8125,412.75 C -124.45648,413.40461 -128.10638,413.55138 -131.65625,413.25 C -131.74022,413.24293 -131.82243,413.22632 -131.90625,413.21875 C -131.95889,413.21396 -132.00989,413.19249 -132.0625,413.1875 C -133.51083,413.05111 -134.94267,412.84341 -136.34375,412.5625 C -137.82813,412.26217 -139.28466,411.89496 -140.71875,411.4375 C -140.72811,411.43452 -140.74065,411.44049 -140.75,411.4375 C -141.02976,411.34842 -141.3166,411.25105 -141.59375,411.15625 C -141.89376,411.05326 -142.20267,410.95348 -142.5,410.84375 C -143.03879,410.64555 -143.56573,410.43836 -144.09375,410.21875 C -144.12422,410.20605 -144.15706,410.20027 -144.1875,410.1875 C -144.51361,410.05096 -144.83444,409.89455 -145.15625,409.75 C -145.38632,409.64648 -145.61567,409.54514 -145.84375,409.4375 C -146.35877,409.19482 -146.84059,408.95044 -147.34375,408.6875 C -147.37269,408.67241 -147.40859,408.6714 -147.4375,408.65625 C -147.92844,408.39819 -148.42716,408.12062 -148.90625,407.84375 C -148.94624,407.82068 -148.99133,407.80445 -149.03125,407.78125 C -149.50894,407.50306 -149.97218,407.2027 -150.4375,406.90625 C -150.47668,406.88136 -150.52341,406.86877 -150.5625,406.84375 C -151.02656,406.54592 -151.45507,406.22179 -151.90625,405.90625 C -152.39499,405.56558 -152.86964,405.23661 -153.34375,404.875 C -153.81786,404.51339 -154.29128,404.13211 -154.75,403.75 C -154.78984,403.71681 -154.83528,403.68959 -154.875,403.65625 C -155.29128,403.30601 -155.69167,402.92856 -156.09375,402.5625 C -156.13215,402.52761 -156.18048,402.50379 -156.21875,402.46875 C -156.62468,402.09643 -157.01543,401.73176 -157.40625,401.34375 C -157.42194,401.3282 -157.42183,401.29682 -157.4375,401.28125 C -157.84441,400.87597 -158.26633,400.45302 -158.65625,400.03125 C -158.68635,399.99871 -158.71999,399.97014 -158.75,399.9375 C -159.12311,399.53137 -159.48685,399.10829 -159.84375,398.6875 C -159.87198,398.65418 -159.90937,398.62717 -159.9375,398.59375 C -160.30241,398.16075 -160.65274,397.72912 -161,397.28125 C -161.01783,397.25824 -161.04472,397.2418 -161.0625,397.21875 C -161.78345,396.28406 -162.45042,395.31434 -163.09375,394.3125 C -163.10146,394.30049 -163.1173,394.29327 -163.125,394.28125 C -163.4484,393.77824 -163.76052,393.26758 -164.0625,392.75 C -164.56749,391.88089 -165.02423,390.97565 -165.46875,390.0625 C -165.55031,389.89496 -165.63929,389.73149 -165.71875,389.5625 C -165.73448,389.52918 -165.7656,389.50212 -165.78125,389.46875 C -165.96757,389.06969 -166.13808,388.65696 -166.3125,388.25 C -166.37897,388.09556 -166.43535,387.93665 -166.5,387.78125 C -166.52166,387.72896 -166.54104,387.67741 -166.5625,387.625 C -166.78372,387.08703 -166.98846,386.54905 -167.1875,386 C -168.40381,382.64474 -169.21708,379.10175 -169.53125,375.40625 z" />
      </g>
    </g>
  </g>
</svg>
